<?xml version="1.0" encoding="utf-8"?>
<!-- Generator: Adobe Illustrator 18.0.0, SVG Export Plug-In . SVG Version: 6.00 Build 0)  -->
<!DOCTYPE svg PUBLIC "-//W3C//DTD SVG 1.1//EN" "http://www.w3.org/Graphics/SVG/1.1/DTD/svg11.dtd">
<svg version="1.1" id="Layer_1" xmlns="http://www.w3.org/2000/svg" xmlns:xlink="http://www.w3.org/1999/xlink" x="0px" y="0px"
	 viewBox="0 0 200 200" enable-background="new 0 0 200 200" xml:space="preserve">
<g>
	<path fill="#EFEAF5" d="M103,117.4l-7-12.7c0,0-1.2,33.7-12.7,34.1s-10.1,6.4-10.1,6.4s-7.2,5.1-18.7,1.6c0,0-5.5-0.8-5.7,4.5
		c-0.2,5.3-17.7,6.4-24,0s6.2,3.7,14,0.8c7.8-2.9-2.9-17.9-2.9-17.9s-7.2-7.2-0.8-25c0,0-13.3,4.5-20.3-4.1s0-11.7,0-11.7
		S2.7,95.2,0.6,84.1s6.8-8,6.8-8s1.4-6.2-6-17.2s16.4-11.3,16.4-11.3s32.6,1.6,71,37.6c0,0,2.3-7.6-34.5-32c0,0-9.4-9,2.5-15.8
		s2.7,12.3,2.7,12.3S92.8,76.8,93,77.1c5.5,8.4-0.2-0.3-0.2-0.3s3.5-9.8,18.5-23.9c0,0,5.7-3.3-4.1-12.3s12.1,0.2,12.1,0.2
		s5.1,5.3,0,12.5s-11.8,10.1-15.2,25.2c0,0,24-35.7,62.2-34.5s16.6,24.4,14.2,20.5c-2.5-3.9-1-0.6-1-0.6s12.7,13.1,6.4,17
		s-6.4,3.9-6.4,3.9s9.2,10.3,3.1,9.2c0,0,2.7,4.7-13.8,6.2c0,0,13.3,15.2,5.5,28.3s12.5,12.1,21.8,6.4c9.2-5.7,1.6,3.7-3.9,6
		c-5.5,2.3-11.9,5.3-28.5-2.5c0,0-10.5,3.3-18.9-4.7c0,0-8.2,2.1-15.8-1.2s-19.5-17.2-23.6-28.9L103,117.4z"/>
	<g>
		<path fill="#D78E7A" d="M116.6,67.1c20.7-20.5,36.1-8.4,36.1-8.4s5.3,0.6,1.4,9.4c0,0,11.5,1.6,8.8,8.8c-2.7,7.2-5.5,5.7-5.5,5.7
			s7.6,2.5,3.3,9.2c-4.3,6.8-12.7,5.3-12.7,5.3s-33,3.7-43.5-3.5C97.4,88.9,108.3,75.3,116.6,67.1z"/>
		<path fill="#D78E7A" d="M83.3,98.2c0,0-20.1,5.2-45.2,6.4c0,0-9-3.7-7.4-13.5c0,0-9.6-2.3-9.6-10.1s6.8-6.4,6.8-6.4
			s-5.3-5.1-1.6-10.3s30.2,0.4,30.2,0.4s27.5,14.4,30.8,23.8S83.3,98.2,83.3,98.2z"/>
		<ellipse fill="#D78E7A" cx="173.6" cy="91.2" rx="4.1" ry="3.8"/>
		<ellipse fill="#D78E7A" cx="175.8" cy="75.8" rx="4.6" ry="3.9"/>
		<ellipse fill="#D78E7A" cx="169" cy="54.1" rx="5.6" ry="3.9"/>
		<ellipse fill="#D78E7A" cx="11.9" cy="58.9" rx="6.6" ry="6"/>
		<ellipse fill="#D78E7A" cx="10.5" cy="84.6" rx="5.2" ry="4.8"/>
		<ellipse fill="#D78E7A" cx="21.8" cy="102.3" rx="4.4" ry="4.1"/>
	</g>
</g>
</svg>
