<?xml version="1.0" encoding="utf-8"?>
<!-- Generator: Adobe Illustrator 18.0.0, SVG Export Plug-In . SVG Version: 6.00 Build 0)  -->
<!DOCTYPE svg PUBLIC "-//W3C//DTD SVG 1.1//EN" "http://www.w3.org/Graphics/SVG/1.1/DTD/svg11.dtd">
<svg version="1.1" id="Layer_1" xmlns="http://www.w3.org/2000/svg" xmlns:xlink="http://www.w3.org/1999/xlink" x="0px" y="0px"
	 viewBox="0 0 200 200" enable-background="new 0 0 200 200" xml:space="preserve">
<path fill="#FBB040" d="M90.2,75.2c0,0-8.4-43.4,11.5-52.5s33.1,4.1,36,9.6s1.7,24-18.7,47c0,0,63.3-24.7,77.7-2.9
	c14.4,21.8-29.3,36.7-57.6,35c0,0,66.9,30.7,35.7,54.7s-69.5-43.9-69.5-43.9s17,54.2-13.2,58c-44.9-3-13.2-64.5-13.2-64.5
	S12.8,150,1.7,113.4S54,89.9,64.8,92c0,0-74.8-31.2-40-54S90.2,75.2,90.2,75.2z"/>
<g>
	<ellipse fill="#EC008C" cx="100" cy="100" rx="25.4" ry="20.1"/>
</g>
</svg>
