<?xml version="1.0" encoding="utf-8"?>
<!-- Generator: Adobe Illustrator 18.0.0, SVG Export Plug-In . SVG Version: 6.00 Build 0)  -->
<!DOCTYPE svg PUBLIC "-//W3C//DTD SVG 1.1//EN" "http://www.w3.org/Graphics/SVG/1.1/DTD/svg11.dtd">
<svg version="1.1" id="Layer_1" xmlns="http://www.w3.org/2000/svg" xmlns:xlink="http://www.w3.org/1999/xlink" x="0px" y="0px"
	 viewBox="0 0 200 200" enable-background="new 0 0 200 200" xml:space="preserve">
<path fill="#92278F" d="M83.3,54.6c0,0-2-19.1,9-30.3s7.7,34.2,11,33.9c3.3-0.4,13.7-31.8,24.7-31s3.3,32.9,3.3,32.9
	s25.8-21.8,30.8-16.5S151,71.9,151,71.9s22.8-4.7,29.1,4.9c6.3,9.5-23.4,17.7-23.4,17.7s28.7,3.9,30.3,13.4s-26.3,6-26.3,6
	s26.7,12,23.3,22.6s-27-5.6-27-5.6s17,21.9,9,26.8s-26-14.1-26-14.1s7.3,19.4-1,22.9c-8.3,3.5-25.3-19.4-25.3-19.4s3,28.9-5.3,29.3
	c-8.3,0.4-17-27.9-17-27.9S75.7,168.6,68,168.2s-3.3-23.3-3.3-23.3s-21.3,9.2-26,4.9s10-20.8,10-20.8s-23.3,9.2-27,1.1
	S32,107.9,32,107.9s-21-4.2-20.7-12.3c0.3-8.1,27.3-7.8,27.3-7.8S17,73.7,21.3,69.1s25,2.8,25,2.8S29.3,49,38.7,43s19,13.1,19,13.1
	S56,33.1,64.3,30.6S83.3,54.6,83.3,54.6z"/>
<ellipse fill="#F9ED32" cx="94.1" cy="101.8" rx="35.3" ry="30.1"/>
</svg>
