<?xml version="1.0" encoding="utf-8"?>
<!-- Generator: Adobe Illustrator 18.0.0, SVG Export Plug-In . SVG Version: 6.00 Build 0)  -->
<!DOCTYPE svg PUBLIC "-//W3C//DTD SVG 1.1//EN" "http://www.w3.org/Graphics/SVG/1.1/DTD/svg11.dtd">
<svg version="1.1" id="Layer_1" xmlns="http://www.w3.org/2000/svg" xmlns:xlink="http://www.w3.org/1999/xlink" x="0px" y="0px"
	 viewBox="0 0 200 200" enable-background="new 0 0 200 200" xml:space="preserve">
<path fill="#E6E7E8" d="M54.4,132.4c-3.4,3.1-14.2,19.6-6,27.6c8.3,8,35-16.2,35.6-17.4s-7.1,32.4,6.3,33.9
	c13.4,1.4,15.1-3.7,20.8-26.7c0,0,14.2,35.3,29.6,27.3s-2.6-36.7-2.6-36.7s33.6,30.7,44.1,15.9c10.5-14.8-28.7-35.9-28.7-35.9
	s40.7,15.9,44.4-3.4c3.7-19.3-39.5-17.9-39.5-17.9s33-8,28.5-24.5s-39.3,0-39.3,0s17.4-19.1,8.8-31s-39,17.1-39,17.1
	s15.1-33.9-10.8-39.3s-17.4,39-17.4,39s-12-38.7-31.9-34.1s6.3,37.3,6.3,37.3s-29.9-28.2-41-11.4s29.6,27.3,29.6,27.3
	s-45.2-8-49.8,7.4s45,17.6,45,17.6s-38.4,10.8-32.2,27.6S54.4,132.4,54.4,132.4z"/>
<circle fill="#BD82B4" cx="86.1" cy="69.6" r="4.5"/>
<ellipse fill="#BD82B4" cx="101.8" cy="68.9" rx="5" ry="3.9"/>
<circle fill="#BD82B4" cx="117.5" cy="80.7" r="4.3"/>
<ellipse fill="#BD82B4" cx="124.7" cy="96.7" rx="4.7" ry="3.9"/>
<ellipse fill="#BD82B4" cx="122.2" cy="111.2" rx="4.7" ry="3.6"/>
<ellipse fill="#BD82B4" cx="113.7" cy="126.2" rx="3.8" ry="3.4"/>
<ellipse fill="#BD82B4" cx="96.1" cy="131.2" rx="4" ry="3.7"/>
<ellipse fill="#BD82B4" cx="81.6" cy="123.3" rx="4.5" ry="4.1"/>
<ellipse fill="#BD82B4" cx="66.8" cy="110.6" rx="4.1" ry="4.3"/>
<ellipse fill="#BD82B4" cx="69.5" cy="93" rx="4.3" ry="3.7"/>
<ellipse fill="#BD82B4" cx="74.1" cy="80.7" rx="4.6" ry="4.3"/>
<ellipse fill="#BD82B4" cx="93.7" cy="81.9" rx="3.1" ry="3"/>
<ellipse fill="#BD82B4" cx="103.5" cy="88.9" rx="3.4" ry="2.7"/>
<ellipse fill="#BD82B4" cx="110" cy="98.2" rx="3.2" ry="2.5"/>
<ellipse fill="#BD82B4" cx="103.5" cy="104.9" rx="3.4" ry="2.7"/>
<circle fill="#BD82B4" cx="109.3" cy="115" r="2.5"/>
<ellipse fill="#BD82B4" cx="96.1" cy="116.9" rx="4" ry="3.6"/>
<ellipse fill="#BD82B4" cx="84.9" cy="105.7" rx="3.3" ry="3.5"/>
<ellipse fill="#BD82B4" cx="93.7" cy="99.5" rx="3.1" ry="2.7"/>
<ellipse fill="#BD82B4" cx="87.7" cy="89.6" rx="2.8" ry="3.4"/>
<ellipse fill="#BD82B4" cx="79.5" cy="96.1" rx="3.4" ry="3.3"/>
<ellipse fill="#BD82B4" cx="79.5" cy="112" rx="3.4" ry="2.8"/>
</svg>
