<?xml version="1.0" encoding="utf-8"?>
<!-- Generator: Adobe Illustrator 18.0.0, SVG Export Plug-In . SVG Version: 6.00 Build 0)  -->
<!DOCTYPE svg PUBLIC "-//W3C//DTD SVG 1.1//EN" "http://www.w3.org/Graphics/SVG/1.1/DTD/svg11.dtd">
<svg version="1.1" id="Layer_1" xmlns="http://www.w3.org/2000/svg" xmlns:xlink="http://www.w3.org/1999/xlink" x="0px" y="0px"
	 viewBox="0 0 200 200" enable-background="new 0 0 200 200" xml:space="preserve">
<path fill="#E9DCEC" d="M113.4,98.9c-3.1-19.6-31.2-64.3,26.5-76.1c0,0,12.9-2.9,12,26.7c0,0,15.1,20.7,23.4,24.7
	c8.2,4,3.6,10.7-3.6,17.1s-20.9,3.1-28-0.4c-7.1-3.6-8.7,8-8.7,8s7.1,2.9,16.3,0c9.1-2.9,13.8-5.3,21.1-3.3c7.3,2,34.3,8,26.3,28
	c-8,20-30.3,14-39.8,8.5c-9.6-5.6-15.4-21.1-32.7-21.1l12.2,15.1c0,0-1.6,4.5-5.8,3.6c-4.2-0.9-14.5-16.9-14.5-16.9
	s-7.1,10.7,9.3,28.9s-21.4,22.5-25.2,22.5c-3.8,0-30.1-3.3-26-25.6c0,0,10.9-13.1,17.4-16c1.4-0.7,8.9-11.4-4.7-7.1
	c-4.5,3,0.8,11.8-30.3,21.4c0,0-11.6,1.3-21.6-20.3c0,0-12.2-14.9-32.3-16.9c0,0-14.2-8.2,6.7-18s77.5,6.9,84.4,14.9
	c6.9,8,9.6,5.8,9.6,5.8S78.6,75.8,57.1,71.1l-5.6,2.4l-6.5-4l6.9-5.1L93.6,84l-8-34.3l8.5-3.1l3.1,5.1l-4,3.3
	C93.1,55.1,109.1,102.7,113.4,98.9z"/>
<ellipse fill="#E4A3C9" cx="13.8" cy="89.9" rx="6" ry="3.6"/>
<ellipse fill="#E4A3C9" cx="27" cy="100.6" rx="4.9" ry="3.6"/>
<ellipse fill="#E4A3C9" cx="33.4" cy="84.9" rx="4.2" ry="3.7"/>
<ellipse fill="#E4A3C9" cx="42.2" cy="95.1" rx="4.6" ry="3.7"/>
<ellipse fill="#E4A3C9" cx="52.5" cy="105.3" rx="5.7" ry="4.8"/>
<ellipse fill="#E4A3C9" cx="42" cy="111.8" rx="5.6" ry="4.1"/>
<ellipse fill="#E4A3C9" cx="51.9" cy="123.8" rx="5.1" ry="3.9"/>
<ellipse fill="#E4A3C9" cx="62.8" cy="116.5" rx="4.7" ry="3.5"/>
<ellipse fill="#E4A3C9" cx="68.7" cy="126.2" rx="5.9" ry="3.3"/>
<ellipse fill="#E4A3C9" cx="55.4" cy="87.5" rx="5.5" ry="4.3"/>
<ellipse fill="#E4A3C9" cx="68.7" cy="96.6" rx="5.9" ry="4"/>
<ellipse fill="#E4A3C9" cx="80.2" cy="107.1" rx="5.6" ry="3"/>
<ellipse fill="#E4A3C9" cx="95" cy="102" rx="4.3" ry="3.3"/>
<ellipse fill="#E4A3C9" cx="105.9" cy="111.4" rx="3.9" ry="3.6"/>
<ellipse fill="#E4A3C9" cx="110.4" cy="123.8" rx="4.5" ry="3.9"/>
<ellipse fill="#E4A3C9" cx="101.9" cy="131.8" rx="5" ry="4.1"/>
<ellipse fill="#E4A3C9" cx="110.9" cy="141.5" rx="4" ry="3.8"/>
<ellipse fill="#E4A3C9" cx="106.9" cy="157.9" rx="4.9" ry="3.5"/>
<ellipse fill="#E4A3C9" cx="94.9" cy="149.5" rx="5.6" ry="2.9"/>
<ellipse fill="#E4A3C9" cx="86.7" cy="137.7" rx="5.6" ry="3.8"/>
<ellipse fill="#E4A3C9" cx="119.6" cy="92.2" rx="4.7" ry="4.8"/>
<ellipse fill="#E4A3C9" cx="112.8" cy="61.3" rx="4.8" ry="3.5"/>
<ellipse fill="#E4A3C9" cx="121.4" cy="73.2" rx="5.3" ry="4.5"/>
<ellipse fill="#E4A3C9" cx="132.5" cy="84.9" rx="5.8" ry="3.7"/>
<ellipse fill="#E4A3C9" cx="137.5" cy="65.6" rx="5" ry="5.3"/>
<ellipse fill="#E4A3C9" cx="127.5" cy="53.7" rx="6.1" ry="4.1"/>
<ellipse fill="#E4A3C9" cx="119.6" cy="42" rx="4.7" ry="4.9"/>
<ellipse fill="#E4A3C9" cx="133" cy="32.8" rx="4.5" ry="4.2"/>
<ellipse fill="#E4A3C9" cx="144.6" cy="45" rx="4.8" ry="4.6"/>
<ellipse fill="#E4A3C9" cx="152.1" cy="60" rx="4.7" ry="3.9"/>
<ellipse fill="#E4A3C9" cx="149.9" cy="77.2" rx="5.3" ry="4"/>
<ellipse fill="#E4A3C9" cx="158.7" cy="87.3" rx="5.7" ry="4.1"/>
<ellipse fill="#E4A3C9" cx="137.1" cy="105" rx="5.5" ry="2.9"/>
<ellipse fill="#E4A3C9" cx="154.7" cy="108.6" rx="6.3" ry="3.3"/>
<ellipse fill="#E4A3C9" cx="169.9" cy="101.2" rx="4.7" ry="4.2"/>
<ellipse fill="#E4A3C9" cx="178" cy="113" rx="6.6" ry="2.9"/>
<ellipse fill="#E4A3C9" cx="185.7" cy="123.8" rx="5.6" ry="3.9"/>
<ellipse fill="#E4A3C9" cx="164.3" cy="119.7" rx="7.1" ry="3.2"/>
<ellipse fill="#E4A3C9" cx="192.6" cy="110.4" rx="3.8" ry="2.6"/>
</svg>
